<?xml version="1.0" encoding="UTF-8"?>
<svg id="Layer_1" data-name="Layer 1" xmlns="http://www.w3.org/2000/svg" viewBox="0 0 1000 1000">
  <defs>
    <style>
      .cls-1 {
        stroke: #fffde4;
      }

      .cls-1, .cls-2 {
        fill: #fff37a;
      }

      .cls-1, .cls-2, .cls-3 {
        stroke-miterlimit: 10;
        stroke-width: 2px;
      }

      .cls-2 {
        stroke: #fff;
      }

      .cls-3 {
        stroke: aqua;
      }
    </style>
  </defs>
  <line class="cls-3" x1="852.79" y1="486.84" x2="852.76" y2="486.84"/>
  <line class="cls-3" x1="852.79" y1="486.84" x2="852.76" y2="486.84"/>
  <path class="cls-2" d="M667.1,271.14c-30.23,41.32-70.22,96.11-100.34,137.34-90.19,2.81-75.59,135.86,12.76,119.51-15,39.41-35.51,92.78-50.58,132.26-14.21,15.69-51.53,57.44-65.29,72.66-11.93-15.91-51.87-69.2-64.43-85.97l86.48-99.72c-47.35,33.27-144.37,101.37-191.31,134.29l-1.89-129.11c15.46-10.91,66.61-46.79,82.92-58.23-47.27,10.1-142.85,30.55-190.7,40.77l60.46-123.18c29.88-6.39,135.7-29,167.38-35.77-54.81-4.74-178.56-15.42-232.15-20.03l101.57-97.59,168.99,14.61c-21.66-10.65-131.9-64.87-150.99-74.21,36.78-14.03,110.88-42.26,147.69-56.27l219.43,128.63Z"/>
  <line class="cls-3" x1="694.74" y1="287.36" x2="689.6" y2="284.35"/>
  <path class="cls-2" d="M774.81,339.55c-43.21,31.28-108.72,78.54-151.81,109.7-3.35-9.73-9.12-18.42-16.63-25.14-3.78-3.45-7.94-6.37-12.48-8.74,29.87-40.78,82.23-112.61,111.79-153.01l69.13,77.19Z"/>
  <line class="cls-3" x1="537.07" y1="709.05" x2="537.04" y2="709.05"/>
  <line class="cls-3" x1="537.07" y1="709.05" x2="537.04" y2="709.05"/>
  <line class="cls-3" x1="576.37" y1="409.41" x2="568.82" y2="405.67"/>
  <line class="cls-3" x1="793.13" y1="623.11" x2="793.13" y2="623.08"/>
  <line class="cls-3" x1="724.95" y1="662.24" x2="724.95" y2="662.2"/>
  <line class="cls-3" x1="653.63" y1="611.08" x2="653.42" y2="611.11"/>
  <line class="cls-3" x1="724.95" y1="662.24" x2="724.95" y2="662.2"/>
  <line class="cls-3" x1="781.36" y1="508.44" x2="779.41" y2="509.06"/>
  <line class="cls-3" x1="629.93" y1="468.94" x2="626.26" y2="471.37"/>
  <path class="cls-2" d="M754.2,582.51l-7.2,19.58,44.75-12.72s-17.18,44.36-17.15,44.37l-32.71,18.76c-26.21-12.29-62.55-29.37-88.82-41.7,9.84,9.19,44.26,41.5,54.66,51.23-3.32,8.55-14.81,38.33-18.31,47.39-30.24-.06-120.8-.29-152.36-.38,26.25-67.98,54.84-141.78,81.07-209.62,5.28-8.57,7.51-21.24,11.8-30.49,15.19-10.19,46.27-31.04,61.55-41.29l30.76,11.28-36.21,24.28c25.31,12.42,69.94,34.36,94.85,46.57l-18.76,51.16,45.64-12.96-8.4,21.71-45.16,12.83Z"/>
  <path class="cls-2" d="M844.91,489.2l-16.91,43.69c-8.05-3.94-38.53-18.9-47.12-23.11l.48-1.34c11.81-3.58,52.47-15.89,63.54-19.24Z"/>
  <line class="cls-3" x1="294.39" y1="681.55" x2="294.39" y2="681.51"/>
  <line class="cls-3" x1="294.39" y1="681.55" x2="294.39" y2="681.51"/>
  <line class="cls-3" x1="593.31" y1="491.98" x2="592.52" y2="494.04"/>
  <path class="cls-1" d="M623,449.25c-3.35-9.73-9.12-18.42-16.63-25.14-44.79-41.92-118.71,6.72-98,64.33,15.02,48.54,85.43,55.43,109.73,11.04,7.48-15.77,11.44-33.45,4.9-50.24Zm-54.69,50.48c-41.44-.69-41.49-62.38,0-63.1,41.3,.65,41.6,62.35,0,63.1Z"/>
  <path class="cls-3" d="M529.01,517.19c-.1-.03-.17-.1-.24-.17"/>
  <path class="cls-2" d="M714.91,443.84c1.61-.92,66.57-44.71,69.91-46.94l23.82,20.57-45.52,41.96-48.2-15.59Z"/>
</svg>